<svg
        width="31"
        height="36"
        xmlns="http://www.w3.org/2000/svg"
>
    <g stroke="#01426A" fill="none" fill-rule="evenodd">
        <circle stroke="#01426A" stroke-width="3" cx="15.5" cy="8.5" r="7" />
        <path
                stroke="#01426A"
                d="M9.522 18.513A8.472 8.472 0 003.99 20.99 8.473 8.473 0 001.5 27v7.5h28V27a8.473 8.473 0 00-2.49-6.01 8.474 8.474 0 00-5.088-2.44l-6.487 13.562-5.913-13.599z"
                stroke-width="3"
        />
        <path stroke="#01426A" d="M23.5 33v-5.5" />
        <path
                stroke="#01426A"
                d="M20.598 18.908C18.698 19.64 17.164 20 16 20c-1.21 0-3.09-.393-5.64-1.195l5.14 12.849 5.098-12.746z"
                fill="#E0004D"
        />
        <path stroke="#01426A" d="M7.5 33v-5.5" />
    </g>
</svg>
