<svg width="64" height="43" viewBox="0 0 64 43" fill="none" xmlns="http://www.w3.org/2000/svg">
<path fill-rule="evenodd" clip-rule="evenodd" d="M0 29.8427C0.011025 36.8064 5.65635 42.4472 12.62 42.4527H51.38C58.3437 42.4472 63.989 36.8064 64 29.8427C63.9928 22.9154 59.1814 16.9199 52.42 15.4127C49.8174 6.29048 41.4813 0 31.995 0C22.5087 0 14.1726 6.29048 11.57 15.4127C4.81048 16.9206 0.00244645 22.9171 0 29.8427ZM15.15 17.5827C16.8987 9.67046 23.8969 4.02624 32 3.99274C40.1031 4.02624 47.1013 9.67046 48.85 17.5827L49.14 18.9727L50.56 19.1527C55.9531 19.8239 60.0012 24.408 60 29.8427C59.989 34.5972 56.1345 38.4472 51.38 38.4527H12.62C7.86549 38.4472 4.01102 34.5972 4 29.8427C3.99877 24.408 8.04686 19.8239 13.44 19.1527L14.85 18.9727L15.15 17.5827Z" fill="#0A436A"/>
<path fill-rule="evenodd" clip-rule="evenodd" d="M29.1201 29.2227V33.9627H25.7501V19.9627H31.3201C32.2959 19.9434 33.2633 20.1451 34.1501 20.5527C34.9399 20.9099 35.605 21.4949 36.0601 22.2327C36.5229 22.972 36.7593 23.8306 36.7401 24.7027C36.7926 25.9584 36.2519 27.1657 35.2801 27.9627C34.1362 28.8359 32.7166 29.2689 31.2801 29.1827L29.1201 29.2227ZM16.0601 32.8027C17.1038 33.7753 18.4949 34.2871 19.9201 34.2227C20.7355 34.216 21.5401 34.0353 22.2801 33.6927C22.9624 33.4118 23.5565 32.9524 24.0001 32.3627L22.5401 30.6427C21.9631 31.3656 21.074 31.7674 20.1501 31.7227C19.5997 31.7451 19.0597 31.5675 18.6301 31.2227C18.2215 30.8587 17.9527 30.3636 17.8701 29.8227H24.2701V28.5627C24.3487 27.1862 23.8938 25.8325 23.0001 24.7827C22.0991 23.8772 20.8558 23.3974 19.5801 23.4627C18.6396 23.4415 17.7107 23.6728 16.8901 24.1327C16.1443 24.5765 15.5459 25.2304 15.1701 26.0127C14.7648 26.8931 14.5631 27.8536 14.5801 28.8227V29.0927C14.5366 30.4813 15.0728 31.8253 16.0601 32.8027ZM17.8701 27.8427C18.0501 26.5827 18.5601 25.9627 19.5601 25.9627V25.9227C20.0023 25.9049 20.4312 26.0757 20.7401 26.3927C21.0322 26.7206 21.1736 27.1558 21.1301 27.5927V27.8427H17.8701ZM31.3201 26.6227H29.1201V22.6327H31.3601C31.9037 22.6067 32.431 22.8227 32.8001 23.2227C33.1799 23.6697 33.3701 24.2475 33.3301 24.8327C33.3634 25.3491 33.1741 25.855 32.8101 26.2227C32.3826 26.5412 31.8496 26.6843 31.3201 26.6227ZM44.7701 31.3527H40.1601L39.3501 33.9627H35.7501L40.8701 19.9627H44.0001L49.1601 33.9627H45.5801L44.7701 31.3527ZM44.0001 28.7827H41.0001L42.5001 23.9427L44.0001 28.7827Z" fill="#EB1069"/>
</svg>
