<svg xmlns="http://www.w3.org/2000/svg" width="1341.621" height="3090" viewBox="0 0 1341.621 3090"><g transform="translate(-288 -1061.5)"><path d="M-5544.211,1028.447v58.518s1.444,63.051-88.349,63.051h-426.914s-66.736,5.274-66.736,66.812v691.619" transform="translate(6504.209 34.553)" fill="none" stroke="#e70865" stroke-linecap="round" stroke-width="3"/><path d="M2325,3623.659l-15,15,15,15" transform="translate(-2678.659 3424) rotate(-90)" fill="none" stroke="#e70865" stroke-linecap="round" stroke-linejoin="round" stroke-width="3"/><path d="M2325,3623.659l-15,15,15,15" transform="translate(-1788 -2454.16)" fill="none" stroke="#e70865" stroke-linecap="round" stroke-linejoin="round" stroke-width="3"/><path d="M2325,3623.659l-15,15,15,15" transform="translate(3483 5885.659) rotate(180)" fill="none" stroke="#e70865" stroke-linecap="round" stroke-linejoin="round" stroke-width="3"/><path d="M2325.649,3623.659l-15.649,15.5,15.649,15.5" transform="translate(2878.648 5888.176) rotate(180)" fill="none" stroke="#e70865" stroke-linecap="round" stroke-linejoin="round" stroke-width="3"/><path d="M2325,3623.659l-15,15,15,15" transform="translate(-2026.159 4621) rotate(-90)" fill="none" stroke="#e70865" stroke-linecap="round" stroke-linejoin="round" stroke-width="3"/><path d="M-6130.466,2194.483c0,50.03-5.005,92.917,85.442,92.917h1078.273s70.251-2.179,70.251,64.017" transform="translate(6509 -40.483)" fill="none" stroke="#e70865" stroke-linecap="round" stroke-linejoin="round" stroke-width="3"/><path d="M2325,3623.659l-15,15,15,15" transform="translate(-843 -854.16)" fill="none" stroke="#e70865" stroke-linecap="round" stroke-linejoin="round" stroke-width="3"/><path d="M2325,3623.659l-15,15,15,15" transform="translate(-1704 -854.159)" fill="none" stroke="#e70865" stroke-linecap="round" stroke-linejoin="round" stroke-width="3"/><path d="M-5065,2591.218s-1.361,97.806-93.176,97.806H-6187.986s-44.014-3.132-44.014,51.194" transform="translate(6678.005 95.782)" fill="none" stroke="#e70865" stroke-linecap="round" stroke-width="3"/><path d="M2325,3623.659l-15,15,15,15" transform="translate(-3192.659 5687) rotate(-90)" fill="none" stroke="#e70865" stroke-linecap="round" stroke-linejoin="round" stroke-width="3"/><path d="M2325,3623.659l-15,15,15,15" transform="translate(3495 7134.159) rotate(180)" fill="none" stroke="#e70865" stroke-linecap="round" stroke-linejoin="round" stroke-width="3"/><path d="M-6232,3242.587v139.39s.119,48.677,41.485,48.677h797.368s39.147-2.133,39.147,45.933" transform="translate(6678.005 64.413)" fill="none" stroke="#e70865" stroke-linecap="round" stroke-width="3"/><g transform="translate(0 -34)"><path d="M2325,3623.659l-15,15,15,15" transform="translate(-1082 455.34)" fill="none" stroke="#e70865" stroke-linecap="round" stroke-linejoin="round" stroke-width="3"/><path d="M2325,3623.659l-15,15,15,15" transform="translate(-2678.659 6494) rotate(-90)" fill="none" stroke="#e70865" stroke-linecap="round" stroke-linejoin="round" stroke-width="3"/><path d="M-5186.691,3909.809V3964.6c0,38.176-14.081,58.795-77.852,58.795h-221.893c-26.435,0-63.754-1.1-63.754,38.661v49.421" transform="translate(6510.189 70.526)" fill="none" stroke="#e70865" stroke-linecap="round" stroke-width="3"/></g><rect width="88" height="312" transform="translate(288 1198)" fill="#fff"/></g></svg>