<svg xmlns="http://www.w3.org/2000/svg" width="1342" height="4154" viewBox="0 0 1342 4154">
  <g fill="none" fill-rule="evenodd" transform="translate(0 1)">
    <g stroke="#E70865" stroke-linecap="round" stroke-width="3" transform="translate(81)">
      <path d="M1160.448,3987.5 L1160.5,4019.719 C1160.5,4061.26 1110.7,4063.419 1037.8,4063.419 L660.331,4063.419 C618.931,4063.419 590.497,4062.319 590.497,4102.08 L590.497,4151.501"/>
      <polyline stroke-linejoin="round" points="1168 3700 1153 3715 1168 3730" transform="rotate(-90 1160.5 3715)"/>
      <polyline stroke-linejoin="round" points="111.016 3643.501 96.016 3658.501 111.016 3673.501" transform="rotate(180 103.516 3658.501)"/>
      <path stroke-linejoin="round" d="M0.547,3565.5 L0.547,3610.807 C0.547,3630.066 2.332,3651.69 36.309,3658.418 L1094.462,3658.418 C1094.462,3658.418 1160.5,3656.239 1160.5,3722.435"/>
      <polyline stroke-linejoin="round" points="83.5 3184.999 68.5 3199.999 83.5 3214.999"/>
      <path d="M665,2974.872 L665,3158.544 C665,3179.144 646.393,3200.306 611.944,3200.306 L50.051,3200.306 C50.051,3200.306 0.499,3192.795 0.499,3256.964 L0.499,3301.5"/>
      <polyline stroke-linejoin="round" points="672.5 3117 657.5 3132 672.5 3147" transform="rotate(-90 665 3132)"/>
      <polyline stroke-linejoin="round" points="462.016 2465.501 447.016 2480.501 462.016 2495.501" transform="rotate(180 454.516 2480.501)"/>
      <path stroke-linejoin="round" d="M145.5,2387.5 C145.5,2447.4 153.831,2480.417 214.069,2480.417 L618.009,2480.417 C618.009,2480.417 665.065,2475.379 665.065,2522.207 L665.065,2584.435"/>
      <polyline stroke-linejoin="round" points="672.5 2565 657.5 2580 672.5 2595" transform="rotate(-90 665 2580)"/>
      <polyline stroke-linejoin="round" points="1251.5 1708.999 1236.5 1723.999 1251.5 1738.999" transform="rotate(-90 1244 1723.999)"/>
      <path d="M1243.5,1636.499 L1243.67,1781.43 C1243.67,1841.29 1184.402,1840.49927 1161.688,1840.49927 L814.688,1840.49927"/>
      <polyline stroke-linejoin="round" points="1111.5 1826 1096.5 1841 1111.5 1856"/>
      <polyline stroke-linejoin="round" points="180.5 1270.5 165.5 1285.5 180.5 1300.5" transform="rotate(180 173 1285.5)"/>
      <polyline stroke-linejoin="round" points="1250.5 1327 1235.5 1342 1250.5 1357" transform="rotate(-90 1243 1342)"/>
      <path stroke-linejoin="round" d="M9.034,1192.5 C9.034,1242.53 4.029,1285.417 94.476,1285.417 L1172.749,1285.417 C1172.749,1285.417 1243,1283.238 1243,1349.434"/>
      <path d="M590.499402,0.5 L590.499402,59.018 C590.499402,59.018 591.942,122.069 502.149,122.069 L75.235,122.069 C75.235,122.069 8.499,127.343 8.499,188.881 L8.499,892.5"/>
      <polyline stroke-linejoin="round" points="598 29 583 44 598 59" transform="rotate(-90 590.5 44)"/>
      <polyline stroke-linejoin="round" points="167.5 106.999 152.5 121.999 167.5 136.999"/>
    </g>
    <rect width="88" height="312" y="197" fill="#FFF" fill-rule="nonzero"/>
  </g>
</svg>
