<svg width="56" height="53" viewBox="0 0 56 53" fill="none" xmlns="http://www.w3.org/2000/svg">
<path d="M40.7391 4.46472C30.5126 -2.45295 16.8313 -1.22459 8.00061 7.40411C-0.830109 16.0328 -2.37468 29.682 4.30453 40.0658C10.9837 50.4497 24.0445 54.7042 35.5583 50.2467C47.0721 45.7893 53.8632 33.8492 51.8091 21.6747L48.1591 25.3247V26.0047C48.1532 36.0358 41.3628 44.7927 31.6491 47.2959C21.9354 49.7991 11.7584 45.4146 6.90528 36.6357C2.05218 27.8568 3.75195 16.9067 11.038 10.0121C18.3241 3.11756 29.3514 2.02459 37.8491 7.35472L40.7391 4.46472Z" fill="#0A436A"/>
<path fill-rule="evenodd" clip-rule="evenodd" d="M55.8291 12.0047L47.3391 3.51472L26.1691 24.6947L17.1691 15.6947L8.68909 24.1747L26.1691 41.6647L55.8291 12.0047ZM17.1691 21.3447L26.1691 30.3447L47.3391 9.17472L50.1691 12.0047L26.1691 36.0047L14.3391 24.1747L17.1691 21.3447Z" fill="#EB1069"/>
</svg>
